<svg id="Logo_black_and_white" data-name="Logo black and white" xmlns="http://www.w3.org/2000/svg" viewBox="0 0 442.41 442.41"><defs><style>.cls-1{fill:#130b17;}.cls-2{fill:#fff;}</style></defs><path class="cls-1" d="M389.84,427.83,467.4,535.9a221.46,221.46,0,0,0,36.43-222l-12.44,12.44Z" transform="translate(-76.43 -172.89)"/><polygon class="cls-1" points="402.38 126.86 283.68 126.86 283.68 245.55 402.38 126.86"/><path class="cls-1" d="M193,342.3l30.06-42.07v-.48H97.52q-2.73,5.78-5.13,11.73l61.31,85.79Z" transform="translate(-76.43 -172.89)"/><path class="cls-1" d="M223.05,344.86l-69.31,97,0-.05,0,.05L82.54,342.32a222,222,0,0,0-6.11,51.78c0,96,61.16,177.69,146.62,208.3Z" transform="translate(-76.43 -172.89)"/><path class="cls-1" d="M245.61,299.75V609.13q10.65,2.57,21.69,4.09V299.75Z" transform="translate(-76.43 -172.89)"/><path class="cls-1" d="M360.12,457.56V606.34a220.83,220.83,0,0,0,87.65-49.81l-78-108.66Z" transform="translate(-76.43 -172.89)"/><path class="cls-1" d="M297.64,172.89a220.69,220.69,0,0,0-167.35,76.54H465A220.71,220.71,0,0,0,297.64,172.89Z" transform="translate(-76.43 -172.89)"/><path class="cls-1" d="M317.61,299.75V614.39q10.11-.9,19.95-2.69v-312Z" transform="translate(-76.43 -172.89)"/><polygon class="cls-2" points="313.41 254.94 313.41 254.94 414.95 153.39 313.41 254.94"/><polygon class="cls-2" points="293.36 274.98 283.68 284.66 283.68 284.66 293.36 274.98 293.36 274.98"/><polygon class="cls-2" points="77.31 268.96 146.62 171.97 146.62 171.97 77.31 268.96"/><polygon class="cls-2" points="77.27 224.38 116.55 169.41 77.27 224.38 77.27 224.38"/><polygon class="cls-2" points="77.27 268.9 77.31 268.96 77.27 268.9 77.27 268.9"/><path class="cls-2" d="M153.7,441.8h0l0,.05,69.31-97h0V602.4a219.63,219.63,0,0,0,22.56,6.73V299.75H267.3V613.22a223.19,223.19,0,0,0,30.34,2.08c6.73,0,13.39-.32,20-.91V299.75h19.95v312a221.76,221.76,0,0,0,22.56-5.36V457.56h0l9.68-9.69h0l78,108.66A222.42,222.42,0,0,0,467.4,535.9L389.84,427.83h0L491.39,326.29l12.44-12.44A221.32,221.32,0,0,0,465,249.43H130.29a221.77,221.77,0,0,0-32.77,50.32H223.05v.48L193,342.3l-39.29,55h0L92.39,311.48a219.81,219.81,0,0,0-9.85,30.84l71.13,99.53Zm325.11-142L360.12,418.45V299.75Z" transform="translate(-76.43 -172.89)"/></svg>